
<svg width="56" height="72" viewBox="0 0 56 72" fill="none" xmlns="http://www.w3.org/2000/svg">
<path d="M11.5446 49.5974C5.18472 49.5974 0.0454102 54.4873 0.0454102 60.5386C0.0454102 66.59 5.18472 71.4799 11.5446 71.4799C17.9045 71.4799 23.0437 66.59 23.0437 60.5386C23.0437 54.4873 17.9045 49.5974 11.5446 49.5974ZM11.5446 68.2403C7.11196 68.2403 3.45019 64.7562 3.45019 60.5386C3.45019 56.321 7.11196 52.837 11.5446 52.837C15.9772 52.837 19.639 56.321 19.639 60.5386C19.639 64.7562 16.0415 68.2403 11.5446 68.2403Z" fill="#BFEF4D"/>
<path d="M11.5443 62.9837C12.9634 62.9837 14.1139 61.889 14.1139 60.5387C14.1139 59.1883 12.9634 58.0937 11.5443 58.0937C10.1251 58.0937 8.97461 59.1883 8.97461 60.5387C8.97461 61.889 10.1251 62.9837 11.5443 62.9837Z" fill="#BFEF4D"/>
<path d="M32.6159 0.269867L12.1873 44.4629L26.0633 52.1035L55.9997 13.0449L32.6159 0.269867Z" fill="#BFEF4D"/>
</svg>
