<svg width="196" height="72" viewBox="0 0 196 72" fill="none" xmlns="http://www.w3.org/2000/svg">
<path d="M151.545 49.5974C145.185 49.5974 140.045 54.4873 140.045 60.5386C140.045 66.59 145.185 71.4799 151.545 71.4799C157.904 71.4799 163.044 66.59 163.044 60.5386C163.044 54.4873 157.904 49.5974 151.545 49.5974ZM151.545 68.2403C147.112 68.2403 143.45 64.7562 143.45 60.5386C143.45 56.321 147.112 52.837 151.545 52.837C155.977 52.837 159.639 56.321 159.639 60.5386C159.639 64.7562 156.041 68.2403 151.545 68.2403Z" fill="#BFEF4D"/>
<path d="M151.544 62.9837C152.963 62.9837 154.114 61.889 154.114 60.5387C154.114 59.1883 152.963 58.0937 151.544 58.0937C150.125 58.0937 148.975 59.1883 148.975 60.5387C148.975 61.889 150.125 62.9837 151.544 62.9837Z" fill="#BFEF4D"/>
<path d="M172.616 0.269867L152.187 44.4629L166.063 52.1035L196 13.0449L172.616 0.269867Z" fill="#BFEF4D"/>
<path d="M36.7457 35.3554L31.1567 22.7637H31.0925L28.7798 35.3554H25.8247L28.844 19.1574H32.6985L38.159 31.3211H38.2232L40.4717 19.1574H43.4268L40.4074 35.3554H36.7457Z" fill="white"/>
<path d="M55.7614 35.3554L55.0547 31.6268H47.7955L45.3543 35.3554H41.821L52.999 19.1574H55.5687L58.9734 35.3554H55.7614ZM53.5772 22.397L49.273 29.1818H54.7335L53.5772 22.397Z" fill="white"/>
<path d="M60.3228 35.3554L63.3421 19.1574H66.2972L63.2779 35.3554H60.3228Z" fill="white"/>
<path d="M67.0034 35.3554L70.0228 19.1574H72.9779L70.4082 32.8493H77.6675L77.2178 35.3554H67.0034Z" fill="white"/>
<path d="M92.4428 28.326L91.0938 35.3554H88.1387L89.4235 28.326L85.1836 19.1574H88.5241L91.3508 26.0033L97.0682 19.1574H100.666L92.4428 28.326Z" fill="white"/>
<path d="M108.054 18.7906C109.274 18.7906 110.366 18.974 111.33 19.2796C112.294 19.5853 113.129 20.0743 113.835 20.6855C114.542 21.2967 115.056 22.0302 115.441 22.886C115.827 23.7417 116.02 24.7197 116.02 25.82C116.02 27.1647 115.763 28.5094 115.313 29.7319C114.799 30.9544 114.157 31.9935 113.257 32.9104C112.422 33.8273 111.394 34.4996 110.174 35.0498C109.017 35.5999 107.668 35.8444 106.255 35.8444C105.034 35.8444 103.878 35.661 102.85 35.3554C101.822 35.0498 100.987 34.5608 100.28 33.9495C99.5738 33.3383 98.9956 32.6048 98.6101 31.749C98.2247 30.8933 98.032 29.9153 98.032 28.8151C98.032 27.4703 98.2889 26.1256 98.8029 24.9031C99.3168 23.6806 100.023 22.6415 100.859 21.7246C101.758 20.8077 102.786 20.1354 104.006 19.5853C105.291 19.0351 106.64 18.7906 108.054 18.7906ZM106.383 33.3383C107.475 33.3383 108.375 33.1549 109.21 32.727C110.045 32.2992 110.752 31.749 111.33 31.0767C111.908 30.4043 112.358 29.6097 112.615 28.7539C112.936 27.8982 113.064 26.9813 113.064 26.0645C113.064 25.3921 112.936 24.7808 112.743 24.1696C112.55 23.5583 112.165 23.0694 111.78 22.6415C111.33 22.2136 110.816 21.8469 110.174 21.6024C109.531 21.3579 108.825 21.2356 107.989 21.2356C106.962 21.2356 106.062 21.419 105.227 21.8469C104.392 22.2747 103.685 22.8249 103.107 23.4972C102.529 24.1696 102.079 24.9642 101.758 25.82C101.437 26.6757 101.308 27.5926 101.308 28.5094C101.308 29.1818 101.437 29.793 101.629 30.4043C101.822 31.0155 102.208 31.5045 102.593 31.9324C103.043 32.3603 103.557 32.727 104.199 32.9715C104.777 33.1549 105.548 33.3383 106.383 33.3383Z" fill="white"/>
<path d="M130.795 32.0546C130.409 32.8493 129.895 33.5216 129.317 34.0717C128.739 34.6219 127.968 35.0497 127.133 35.3554C126.298 35.661 125.334 35.7832 124.242 35.7832C123.279 35.7832 122.379 35.661 121.608 35.4165C120.837 35.172 120.131 34.8664 119.617 34.3774C119.103 33.9495 118.653 33.3994 118.396 32.7881C118.139 32.1769 117.947 31.4434 117.947 30.7099C117.947 30.5265 117.947 30.282 117.947 30.0987C117.947 29.9153 118.011 29.6708 118.011 29.4263L119.938 19.1574H122.893L121.03 29.304C120.966 29.4874 120.966 29.6708 120.966 29.8542C120.966 30.0375 120.966 30.2209 120.966 30.4043C120.966 30.771 121.03 31.1989 121.159 31.5045C121.287 31.8713 121.48 32.1769 121.737 32.4214C121.994 32.6659 122.379 32.9104 122.765 33.0938C123.214 33.2771 123.728 33.3383 124.306 33.3383C125.077 33.3383 125.72 33.216 126.298 32.9715C126.876 32.727 127.262 32.4214 127.583 32.0546C127.904 31.6879 128.161 31.26 128.354 30.771C128.546 30.282 128.675 29.793 128.739 29.3652L130.602 19.2185H133.557L131.63 29.4874C131.437 30.4043 131.18 31.26 130.795 32.0546Z" fill="white"/>
<path d="M146.855 35.3554H143.515L140.303 28.4483H138.054L136.834 35.3554H133.943L136.962 19.1574H142.037C143.9 19.1574 145.378 19.5241 146.406 20.2576C147.434 20.9911 147.947 22.0302 147.947 23.3138C147.947 24.5974 147.562 25.6366 146.727 26.4312C145.892 27.2258 144.8 27.7759 143.451 28.0815L146.855 35.3554ZM140.688 26.1256C141.973 26.1256 143.001 25.9422 143.708 25.5143C144.414 25.1476 144.735 24.4752 144.735 23.6195C144.735 22.8248 144.414 22.2747 143.836 21.9691C143.258 21.6635 142.423 21.5412 141.459 21.5412H139.339L138.504 26.1256H140.688Z" fill="white"/>
<path d="M14.2615 55.5264L15.9961 46.969H15.8676L11.2422 55.5264H7.6447L6.2314 46.969H6.10291L4.75384 55.5264H0L2.76236 40.6732H9.25073L10.5998 48.8027H10.7283L14.7755 40.6732H21.9062L19.1439 55.5264H14.2615Z" fill="white"/>
<path d="M32.3778 55.5264L32.0565 53.2648H26.9815L25.6967 55.5264H20.0435L29.6154 40.6732H35.0116L37.7098 55.5264H32.3778ZM31.1572 45.7465L28.9087 49.5362H31.6069L31.1572 45.7465Z" fill="white"/>
<path d="M47.153 55.5264L45.033 50.0863H44.3906L43.427 55.5264H38.5447L41.307 40.6732H47.7312C48.5663 40.6732 49.3372 40.7343 50.0438 40.9177C50.7505 41.101 51.3287 41.3455 51.7784 41.7123C52.2923 42.079 52.6135 42.5069 52.8705 42.9959C53.1274 43.4849 53.2559 44.0961 53.2559 44.7685C53.2559 45.991 52.9347 47.0301 52.3565 47.8247C51.7784 48.6193 50.9432 49.1695 49.8511 49.4751L52.8705 55.5264H47.153ZM46.0609 47.0301C46.7676 47.0301 47.2815 46.9079 47.6669 46.7245C48.0524 46.48 48.2451 46.1744 48.2451 45.6854C48.2451 45.2575 48.1166 44.9519 47.7954 44.7685C47.4742 44.5851 47.0245 44.524 46.5106 44.524H45.547L45.0973 47.0301H46.0609Z" fill="white"/>
<path d="M63.2135 55.5264L59.8088 49.2917H59.7445L58.5882 55.5264H53.6416L56.404 40.6732H61.3505L60.3227 46.3577H60.3869L65.3335 40.6732H71.5649L64.4984 47.8859L69.3164 55.5264H63.2135Z" fill="white"/>
<path d="M69.894 55.5264L72.6564 40.6732H82.8708L82.0999 44.7074H76.7036L76.4467 46.1132H81.5859L80.8793 49.903H75.74L75.483 51.4311H81.5217L80.7508 55.4653H69.894V55.5264Z" fill="white"/>
<path d="M92.0572 44.7685L90.0658 55.5264H84.9907L86.9822 44.7685H83.0635L83.8344 40.6732H96.6826L95.9117 44.7685H92.0572Z" fill="white"/>
<path d="M94.8843 55.5264L97.6466 40.6732H102.786L100.024 55.5264H94.8843Z" fill="white"/>
<path d="M112.037 55.5264L108.953 48.1915H108.889L107.668 55.5264H102.722L105.484 40.6732H110.495L113.643 48.3749H113.707L114.992 40.6732H119.938L117.176 55.5264H112.037Z" fill="white"/>
<path d="M132.08 45.8077C131.823 45.4409 131.502 45.1353 131.052 44.9519C130.602 44.7074 130.088 44.6463 129.446 44.6463C128.932 44.6463 128.418 44.7685 127.969 44.9519C127.519 45.1353 127.069 45.4409 126.684 45.8077C126.298 46.1744 126.041 46.6023 125.784 47.1524C125.592 47.7025 125.463 48.3138 125.463 48.925C125.463 49.7196 125.72 50.4531 126.234 50.9421C126.748 51.4922 127.519 51.7367 128.611 51.7367C128.868 51.7367 129.125 51.7367 129.382 51.6756C129.639 51.6145 129.832 51.5534 130.024 51.4922L130.281 50.2086H127.712L128.418 46.4189H135.485L134.007 54.4873C133.172 54.9152 132.273 55.2208 131.245 55.5265C130.217 55.8321 129.125 55.9543 127.969 55.9543C126.812 55.9543 125.72 55.8321 124.756 55.5265C123.793 55.2208 122.958 54.793 122.315 54.2428C121.609 53.6927 121.095 53.0204 120.709 52.1646C120.324 51.37 120.131 50.392 120.131 49.3529C120.131 48.0693 120.388 46.9079 120.838 45.8077C121.287 44.7074 121.93 43.7294 122.765 42.9348C123.6 42.1402 124.564 41.4678 125.72 40.9788C126.876 40.4898 128.097 40.2453 129.446 40.2453C130.795 40.2453 132.016 40.4287 133.044 40.7954C134.071 41.1622 134.907 41.6512 135.485 42.3236L132.08 45.8077Z" fill="white"/>
<path d="M139.66 42.3236C139.403 42.5681 139.147 42.6292 138.825 42.6292C138.504 42.6292 138.247 42.5069 137.99 42.3236C137.733 42.0791 137.669 41.8346 137.669 41.529C137.669 41.2233 137.797 40.9788 137.99 40.7343C138.247 40.4898 138.504 40.4287 138.825 40.4287C139.147 40.4287 139.403 40.551 139.66 40.7343C139.917 40.9788 139.982 41.2233 139.982 41.529C139.982 41.8346 139.917 42.0791 139.66 42.3236ZM138.119 40.8566C137.926 41.04 137.797 41.2845 137.797 41.529C137.797 41.7735 137.926 42.0179 138.119 42.2013C138.311 42.3847 138.568 42.5069 138.825 42.5069C139.082 42.5069 139.339 42.3847 139.532 42.2013C139.725 42.0179 139.853 41.7735 139.853 41.529C139.853 41.2845 139.725 41.04 139.532 40.8566C139.339 40.6732 139.082 40.551 138.825 40.551C138.504 40.551 138.311 40.6732 138.119 40.8566ZM138.761 40.9177C138.954 40.9177 139.018 40.9177 139.147 40.9788C139.275 41.04 139.339 41.1622 139.339 41.2845C139.339 41.4067 139.275 41.4678 139.211 41.529C139.147 41.529 139.082 41.5901 139.018 41.5901C139.146 41.5901 139.211 41.6512 139.211 41.7123C139.275 41.7734 139.275 41.8346 139.275 41.8957V41.9568C139.275 41.9568 139.275 42.0179 139.275 42.0791C139.275 42.1402 139.275 42.1402 139.275 42.1402H139.082V42.0791V41.9568C139.082 41.8346 139.018 41.7123 138.954 41.6512C138.89 41.6512 138.825 41.5901 138.697 41.5901H138.504V42.0791H138.247V40.8566H138.761V40.9177ZM139.018 41.1011C138.954 41.04 138.89 41.04 138.761 41.04H138.568V41.4678H138.761C138.89 41.4678 138.954 41.4678 138.954 41.4678C139.018 41.4067 139.082 41.3456 139.082 41.2845C139.147 41.1622 139.082 41.1011 139.018 41.1011Z" fill="white"/>
</svg>
